<svg width="14" height="13" viewBox="0 0 14 13" fill="none" xmlns="http://www.w3.org/2000/svg">
<path d="M6.51 1.20049C6.85793 1.20049 7.14 0.931856 7.14 0.600488C7.14 0.26912 6.85793 0.000488281 6.51 0.000488281V1.20049ZM13.02 6.20049C13.02 5.86913 12.7379 5.60049 12.39 5.60049C12.0421 5.60049 11.76 5.86913 11.76 6.20049H13.02ZM12.39 1.20049C12.7379 1.20049 13.02 0.931856 13.02 0.600488C13.02 0.26912 12.7379 0.000488281 12.39 0.000488281V1.20049ZM8.95608 0.000488281C8.60815 0.000488281 8.32608 0.26912 8.32608 0.600488C8.32608 0.931856 8.60815 1.20049 8.95608 1.20049V0.000488281ZM13.02 0.600488C13.02 0.26912 12.7379 0.000488281 12.39 0.000488281C12.0421 0.000488281 11.76 0.26912 11.76 0.600488H13.02ZM11.76 3.91329C11.76 4.24465 12.0421 4.51329 12.39 4.51329C12.7379 4.51329 13.02 4.24465 13.02 3.91329H11.76ZM12.8355 1.02475C13.0815 0.79044 13.0815 0.410536 12.8355 0.176224C12.5894 -0.0580879 12.1906 -0.0580879 11.9445 0.176224L12.8355 1.02475ZM6.06455 5.77625C5.81851 6.01057 5.81851 6.39041 6.06455 6.62473C6.31058 6.85905 6.70942 6.85905 6.95545 6.62473L6.06455 5.77625ZM6.51 0.000488281H3.99V1.20049H6.51V0.000488281ZM3.99 0.000488281C1.78639 0.000488281 0 1.70181 0 3.80049H1.26C1.26 2.36454 2.48226 1.20049 3.99 1.20049V0.000488281ZM0 3.80049V8.60049H1.26V3.80049H0ZM0 8.60049C0 10.6992 1.78639 12.4005 3.99 12.4005V11.2005C2.48226 11.2005 1.26 10.0364 1.26 8.60049H0ZM3.99 12.4005H9.03V11.2005H3.99V12.4005ZM9.03 12.4005C11.2337 12.4005 13.02 10.6992 13.02 8.60049H11.76C11.76 10.0364 10.5377 11.2005 9.03 11.2005V12.4005ZM13.02 8.60049V6.20049H11.76V8.60049H13.02ZM12.39 0.000488281H8.95608V1.20049H12.39V0.000488281ZM11.76 0.600488V3.91329H13.02V0.600488H11.76ZM11.9445 0.176224L6.06455 5.77625L6.95545 6.62473L12.8355 1.02475L11.9445 0.176224Z" fill="black"/>
<path d="M6.51 1.20049C6.85793 1.20049 7.14 0.931856 7.14 0.600488C7.14 0.26912 6.85793 0.000488281 6.51 0.000488281M6.51 1.20049V0.000488281M6.51 1.20049H3.99M6.51 0.000488281H3.99M13.02 6.20049C13.02 5.86913 12.7379 5.60049 12.39 5.60049C12.0421 5.60049 11.76 5.86913 11.76 6.20049M13.02 6.20049H11.76M13.02 6.20049V8.60049M11.76 6.20049V8.60049M12.39 1.20049C12.7379 1.20049 13.02 0.931856 13.02 0.600488M12.39 1.20049V0.000488281M12.39 1.20049H8.95608M13.02 0.600488C13.02 0.26912 12.7379 0.000488281 12.39 0.000488281M13.02 0.600488H11.76M13.02 0.600488V3.91329M12.39 0.000488281C12.0421 0.000488281 11.76 0.26912 11.76 0.600488M12.39 0.000488281H8.95608M8.95608 0.000488281C8.60815 0.000488281 8.32608 0.26912 8.32608 0.600488C8.32608 0.931856 8.60815 1.20049 8.95608 1.20049M8.95608 0.000488281V1.20049M11.76 0.600488V3.91329M11.76 3.91329C11.76 4.24465 12.0421 4.51329 12.39 4.51329C12.7379 4.51329 13.02 4.24465 13.02 3.91329M11.76 3.91329H13.02M6.06455 5.77625L11.9445 0.176224C12.1906 -0.0580879 12.5894 -0.0580879 12.8355 0.176224C13.0815 0.410536 13.0815 0.79044 12.8355 1.02475M12.8355 1.02475L11.9445 0.176224M12.8355 1.02475L6.95545 6.62473M6.06455 5.77625C5.81851 6.01057 5.81851 6.39041 6.06455 6.62473C6.31058 6.85905 6.70942 6.85905 6.95545 6.62473M6.06455 5.77625L6.95545 6.62473M3.99 0.000488281V1.20049M3.99 0.000488281C1.78639 0.000488281 0 1.70181 0 3.80049M3.99 1.20049C2.48226 1.20049 1.26 2.36454 1.26 3.80049M0 3.80049H1.26M0 3.80049V8.60049M1.26 3.80049V8.60049M0 8.60049H1.26M0 8.60049C0 10.6992 1.78639 12.4005 3.99 12.4005M1.26 8.60049C1.26 10.0364 2.48226 11.2005 3.99 11.2005M3.99 12.4005V11.2005M3.99 12.4005H9.03M3.99 11.2005H9.03M9.03 12.4005V11.2005M9.03 12.4005C11.2337 12.4005 13.02 10.6992 13.02 8.60049M9.03 11.2005C10.5377 11.2005 11.76 10.0364 11.76 8.60049M13.02 8.60049H11.76" stroke="black" stroke-width="0.00064"/>
</svg>
